<svg width="200" height="200" viewBox="0 0 200 200" fill="none" xmlns="http://www.w3.org/2000/svg">
<path fill-rule="evenodd" clip-rule="evenodd" d="M100 37H38C30.8203 37 25 42.8203 25 50V156C25 163.18 30.8203 169 38 169H143C150.18 169 156 163.18 156 156V86.9621C155.67 86.9872 155.336 87 155 87H147V156C147 158.209 145.209 160 143 160H38C35.7909 160 34 158.209 34 156V50C34 47.7909 35.7909 46 38 46H100V37Z" fill="white"/>
<path d="M81.9496 90.3595L156.643 14.4445C157.999 13.0666 160.215 13.0486 161.593 14.4043L176.562 29.1327C177.94 30.4884 177.958 32.7044 176.602 34.0822L101.908 109.997L81.9496 90.3595Z" stroke="white" stroke-width="7"/>
<rect width="32" height="7.57542" transform="matrix(0.701407 0.712761 0.712761 -0.701407 136.566 32.7049)" fill="white"/>
<path d="M78.271 95.1531L97.1919 113.74L75.3488 119.748C73.4754 120.264 71.756 118.539 72.2775 116.667L78.271 95.1531Z" stroke="white" stroke-width="5"/>
</svg>
