<svg width="100" height="100" viewBox="0 0 100 100" fill="none" xmlns="http://www.w3.org/2000/svg">
<rect width="100" height="100" fill="#DAF2BB"/>
<circle cx="50.4043" cy="31.617" r="19" fill="#C4C4C4"/>
<path fill-rule="evenodd" clip-rule="evenodd" d="M35.7719 50.1471C35.6671 50.1894 35.5625 50.2322 35.458 50.2755C30.8477 52.1852 26.6586 54.9842 23.1299 58.5129C19.6013 62.0415 16.8023 66.2306 14.8926 70.841C12.9829 75.4513 12 80.3927 12 85.3829L50 85.3829H88C88 80.3927 87.0171 75.4513 85.1074 70.8409C83.1977 66.2306 80.3987 62.0415 76.8701 58.5129C73.3414 54.9842 69.1523 52.1852 64.542 50.2755C64.2501 50.1546 63.9569 50.0374 63.6624 49.924C59.9787 53.3632 55.033 55.468 49.5957 55.468C44.2771 55.468 39.4288 53.454 35.7719 50.1471Z" fill="#C4C4C4"/>
</svg>
